# xmcd CD database file
#
# Track frame offsets:
#	150
#	21000
#	41512
#	63347
#	85462
#	105712
#	128700
#	147300
#	165712
#	186000
#	204187
#	223237
#	242175
#	260400
#	277687
#
# Disc length: 3949 seconds
#
# Revision: 6
# Processed by: cddbd v1.5.2PL0 Copyright (c) Steve Scherf et al.
# Submitted via: CDex 1.70beta2
#
DISCID=d40f6b0f
DTITLE=オムニバス - New Music Best Collection 08
DYEAR=1991
DGENRE=JPop
TTITLE0=安全地帯 - 恋の予感
TTITLE1=安全地帯 - 悲しみにさよなら
TTITLE2=来生たかお - 夢の途中
TTITLE3=来生たかお - マイ・ラグジュアリー・ナイト
TTITLE4=加藤登紀子 - ANAK(息子)
TTITLE5=加藤登紀子 - 時代おくれの酒場
TTITLE6=H2O - Goodbyeシーズン
TTITLE7=H2O - 思い出がいっぱい
TTITLE8=来生たかお - スローモーション
TTITLE9=来生たかお - セカンド・ラブ
TTITLE10=安全地帯 - ワインレッドの心
TTITLE11=安全地帯 - 碧い瞳のエリス
TTITLE12=小椋佳 - 泣かせて
TTITLE13=小椋佳 - 揺れるまなざし
TTITLE14=小椋佳 - シクラメンのかほり
EXTD=YEAR: 1991
EXTT0=
EXTT1=
EXTT2=
EXTT3=
EXTT4=
EXTT5=
EXTT6=
EXTT7=
EXTT8=
EXTT9=
EXTT10=
EXTT11=
EXTT12=
EXTT13=
EXTT14=
PLAYORDER=
